<?xml version="1.0" encoding="utf-8"?>
<!-- Generator: Adobe Illustrator 20.1.0, SVG Export Plug-In . SVG Version: 6.00 Build 0)  -->
<svg version="1.1" id="Ebene_1" xmlns="http://www.w3.org/2000/svg" xmlns:xlink="http://www.w3.org/1999/xlink" x="0px" y="0px"
	 viewBox="0 0 46 28" enable-background="new 0 0 46 28" xml:space="preserve">
<path fill="#12100B" d="M8.8,25.3c0.8,0.4,1.7,0.7,2.5,0.9c0.9,0.2,1.8,0.4,2.7,0.6c0.9,0.1,1.9,0.2,2.8,0.2c3.1,0,5.9-0.6,8.3-1.7
	c2.4-1.1,4.4-2.6,6.1-4.4c1.6-1.8,2.9-3.8,3.7-6c0.8-2.2,1.3-4.4,1.3-6.6c0-0.1,0-0.3,0-0.4c0-0.1,0-0.3,0-0.4
	c0.7-0.5,1.3-1,1.9-1.6c0.6-0.6,1.1-1.2,1.5-1.8c-0.6,0.3-1.2,0.5-1.9,0.6c-0.7,0.2-1.3,0.3-2,0.4c0.7-0.4,1.3-0.9,1.8-1.6
	c0.5-0.6,0.9-1.3,1.2-2.1c-0.7,0.4-1.4,0.7-2.1,1c-0.7,0.3-1.5,0.5-2.2,0.6c-0.6-0.6-1.3-1.2-2.2-1.5C31.2,1.2,30.3,1,29.4,1
	c-0.9,0-1.8,0.2-2.6,0.5c-0.8,0.3-1.5,0.8-2.1,1.4C24,3.5,23.5,4.2,23.1,5c-0.4,0.8-0.5,1.6-0.5,2.5c0,0.3,0,0.5,0,0.8
	c0,0.3,0.1,0.5,0.1,0.7C21.3,9,20,8.8,18.7,8.4c-1.3-0.4-2.6-0.8-3.8-1.4c-1.2-0.6-2.3-1.3-3.3-2.1c-1-0.8-2-1.7-2.8-2.7
	c-0.3,0.5-0.5,1-0.7,1.6C7.9,4.3,7.9,4.9,7.9,5.5c0,1.1,0.3,2.2,0.8,3.2c0.5,1,1.3,1.7,2.2,2.3c-0.6,0-1.1-0.1-1.6-0.2
	c-0.5-0.1-1-0.3-1.5-0.6c0,0,0,0,0,0c0,0,0,0,0,0c0,1.6,0.5,3,1.6,4.2c1,1.2,2.3,2,3.9,2.3c-0.3,0.1-0.6,0.1-0.9,0.2
	c-0.3,0-0.6,0.1-0.9,0.1c-0.2,0-0.4,0-0.6,0c-0.2,0-0.4-0.1-0.6-0.1c0.4,1.3,1.2,2.4,2.4,3.2c1.2,0.9,2.5,1.3,4,1.3
	c-1.2,0.9-2.5,1.6-3.9,2.1c-1.4,0.5-2.9,0.7-4.5,0.7c-0.3,0-0.6,0-0.8,0c-0.3,0-0.5,0-0.8-0.1C7.2,24.5,8,24.9,8.8,25.3z"/>
</svg>
