<?xml version="1.0" encoding="utf-8"?>
<!-- Generator: Adobe Illustrator 20.1.0, SVG Export Plug-In . SVG Version: 6.00 Build 0)  -->
<svg version="1.1" id="Ebene_1" xmlns="http://www.w3.org/2000/svg" xmlns:xlink="http://www.w3.org/1999/xlink" x="0px" y="0px"
	 viewBox="0 0 46 28" enable-background="new 0 0 46 28" xml:space="preserve">
<g>
	<path fill="#12100B" d="M16,10.6h4.1V7.3c0-1,0.1-1.9,0.4-2.6c0.3-0.8,0.7-1.4,1.3-2c0.5-0.5,1.2-0.9,1.9-1.2
		C24.5,1.1,25.4,1,26.3,1c0.9,0,1.7,0,2.3,0.1c0.7,0.1,1.1,0.1,1.4,0.1v4.5l-2.6-0.2c-1,0-1.6,0.2-1.9,0.6c-0.3,0.4-0.4,1-0.4,1.6
		v2.9h4.8l-0.6,4.6h-4.1V27h-5V15.2H16V10.6z"/>
</g>
</svg>
